<?xml version="1.0" encoding="utf-8"?>
<!-- Generator: Adobe Illustrator 26.5.0, SVG Export Plug-In . SVG Version: 6.00 Build 0)  -->
<svg version="1.1" xmlns="http://www.w3.org/2000/svg"
	 xmlns:xlink="http://www.w3.org/1999/xlink" x="0px" y="0px"
	 height="363px" width="363px" viewBox="0 0 362.6 362.6"
	 style="enable-background:new 0 0 362.6 362.6;"
	 xml:space="preserve">
<style type="text/css">
	.st0{fill:#3AAA35;}
	.st1{fill:#FFCC00;}
	.st2{fill:#EF7D17;}
	.st3{fill:#E73458;}
	.st4{fill:#951B81;}
	.st5{fill:#1D71B8;}
	.st6{fill:#FBBA00;}
	.st7{fill:#0088C2;}
	.st8{fill:#878787;}
	.st9{fill:#EDEDED;}
	.st10{fill:none;stroke:#3C3C3B;stroke-width:1.8329;stroke-miterlimit:10;}
	.st11{fill:none;stroke:#DADADA;stroke-width:6.5133;stroke-linecap:round;stroke-miterlimit:10;}
	.st12{fill:#DADADA;}
	.st13{fill:#B2B2B2;}
	.st14{fill:#3C3C3B;}
	.st15{clip-path:url(#SVGID_00000003815504847079161490000013839327958167350966_);}
	.st16{fill:none;stroke:#F6F6F6;stroke-width:0.4843;stroke-miterlimit:10;}
	.st17{fill:none;stroke:#000000;stroke-width:2.0041;stroke-linecap:round;stroke-miterlimit:10;}
	.st18{fill:#5BC5F2;}
	.st19{fill:#ACDEF9;}
	.st20{fill:none;stroke:#5BC5F2;stroke-width:2.3182;stroke-miterlimit:10;}
	.st21{fill:none;stroke:#5BC5F2;stroke-width:8.238;stroke-linecap:round;stroke-miterlimit:10;}
	.st22{fill:#BDD7EE;}
	.st23{clip-path:url(#SVGID_00000036211101132580232820000005199262275226301364_);}
	.st24{fill:none;stroke:#F6F6F6;stroke-width:0.6125;stroke-miterlimit:10;}
	.st25{fill:none;stroke:#000000;stroke-width:2.5348;stroke-linecap:round;stroke-miterlimit:10;}
	.st26{fill:#93D5F6;}
	.st27{fill:none;stroke:#5BC5F2;stroke-width:1.56;stroke-miterlimit:10;}
	.st28{fill:none;stroke:#5BC5F2;stroke-width:5.5436;stroke-linecap:round;stroke-miterlimit:10;}
	.st29{fill:#BCE4FA;}
	.st30{clip-path:url(#SVGID_00000010298542558843733140000007204841525007939214_);}
	.st31{fill:none;stroke:#006F9E;stroke-width:0.4122;stroke-miterlimit:10;}
	.st32{fill:none;stroke:#006F9E;stroke-width:1.7057;stroke-linecap:round;stroke-miterlimit:10;}
	.st33{fill:none;stroke:#5BC5F2;stroke-width:2.337;stroke-miterlimit:10;}
	.st34{fill:none;stroke:#5BC5F2;stroke-width:8.3048;stroke-linecap:round;stroke-miterlimit:10;}
	.st35{fill:#89D2F6;}
	.st36{fill:#FFFFFF;}
	.st37{clip-path:url(#SVGID_00000141416479554055988620000002174957183408020875_);}
	.st38{fill:none;stroke:#5BC5F2;stroke-width:0.6175;stroke-miterlimit:10;}
	.st39{fill:none;stroke:#006F9E;stroke-width:2.5553;stroke-linecap:round;stroke-miterlimit:10;}
	.st40{clip-path:url(#SVGID_00000129174308956390329000000011067144550821889665_);}
	.st41{fill:none;stroke:#006F9E;stroke-width:0.6175;stroke-miterlimit:10;}
	.st42{fill:#FFEACA;}
	.st43{fill:#FFFAEC;}
	.st44{fill:#E30613;}
	.st45{fill:#EBF1F1;}
	.st46{fill:#E6332A;}
	.st47{fill:#C6C6C6;}
	.st48{fill:#575756;}
	.st49{fill:#E9E9E9;}
	.st50{fill:#D3D3D3;}
	.st51{fill:#F6F6F6;}
	.st52{fill:#B3D9EF;}
	.st53{fill:#91CAE8;}
	.st54{fill:#5EB7DE;}
	.st55{fill:#006F9E;}
	.st56{fill:#E4E4EF;}
	.st57{fill:#90D4F6;}
	.st58{fill:#E94E1B;}
	.st59{clip-path:url(#SVGID_00000091014428416570060910000000643064113535722915_);fill:#432918;}
	.st60{opacity:0.5;fill:#F6F6F6;}
	.st61{fill:#B2E0F9;fill-opacity:0.8;}
	.st62{opacity:0.5;fill:#FFFFFF;}
	.st63{fill:#BEC0D6;}
	.st64{fill:#CEEAFC;}
	.st65{fill:#616994;}
	.st66{opacity:0.7;}
	.st67{fill:#FFFFFF;fill-opacity:0.2;}
	.st68{fill:#CBE9FC;}
	.st69{fill:#F5E6CF;}
	.st70{fill:#DDC8A5;}
	.st71{fill:#EEDCBC;}
	.st72{fill:#7B6A58;}
	.st73{fill:none;stroke:#FFFFFF;stroke-miterlimit:10;}
	.st74{fill:#A48A7B;}
	.st75{clip-path:url(#SVGID_00000101095020480696679520000003692577531033686152_);}
	.st76{fill:#F7F8F9;}
	.st77{fill:#CEE6F5;}
	.st78{clip-path:url(#SVGID_00000021818399180540222590000002441710567492158366_);fill:#432918;}
	.st79{fill:#D6EEFD;}
	.st80{clip-path:url(#SVGID_00000035497983962521887120000012453260752071442100_);}
	.st81{fill:#58618E;}
	.st82{fill:#AEB0CB;}
	.st83{fill:#747AA2;}
	.st84{fill:#495483;}
	.st85{fill:#28386A;}
	.st86{fill:#3B4878;}
	.st87{fill:#C6AA82;}
	.st88{clip-path:url(#SVGID_00000045584122164018260560000007380180370049321919_);}
	.st89{clip-path:url(#SVGID_00000026124054242139291380000001014520834537623475_);}
	.st90{clip-path:url(#SVGID_00000003821442764291532220000015726112465756447123_);}
	.st91{clip-path:url(#SVGID_00000180354853012480476090000016730361596377415308_);}
	.st92{clip-path:url(#SVGID_00000139280002198000195060000008764456158535574925_);}
	.st93{fill:none;stroke:#F6F6F6;stroke-width:1.7729;stroke-miterlimit:10;}
	.st94{fill:none;stroke:#FFFFFF;stroke-width:1.4695;stroke-miterlimit:10;}
	.st95{fill:none;stroke:#F6F6F6;stroke-width:1.4695;stroke-miterlimit:10;}
	.st96{fill:#E6E6E8;}
	.st97{fill-rule:evenodd;clip-rule:evenodd;fill:#E6E6E8;}
	.st98{fill:#E1F3FD;}
	.st99{fill:#ECF7FE;}
	.st100{fill-rule:evenodd;clip-rule:evenodd;fill:#ECF7FE;}
	.st101{fill:#8EC89A;}
	.st102{fill:#7AAB84;}
	.st103{clip-path:url(#SVGID_00000150800957022243924620000000020712808706151579_);fill:#432918;}
	.st104{clip-path:url(#SVGID_00000108283518790332792680000006267463331459964563_);fill:#432918;}
	.st105{clip-path:url(#SVGID_00000005975357994104392630000017043518352594539670_);fill:#006F9E;}
	.st106{fill:#DAEFFD;}
	.st107{opacity:0.5;fill:#F3F3F8;}
	.st108{clip-path:url(#SVGID_00000058569229991627792220000009094733177212371126_);fill:#432918;}
	.st109{fill:#FFFFFF;fill-opacity:0.3;}
	.st110{opacity:0.6;fill:#DFF2FD;fill-opacity:0.8;}
	.st111{opacity:0.5;fill:#DFF2FD;}
	.st112{fill:#E6F5FE;}
	.st113{fill:#E7E676;}
	.st114{fill:#68A32F;}
	.st115{opacity:0.5;}
	.st116{fill:#DFF2FD;fill-opacity:0.5;}
</style>
<g id="foto_00000162335015431815120300000006233884332876656821_">
</g>
<g id="bakgr">
	<circle class="st7" cx="181.3" cy="181.3" r="181.3"/>
</g>
<g id="Mic">
	<g>
		<path class="st18" d="M336.6,197.6c0,5.9-12.4,10.6-27.6,10.6c-15.2,0-27.6-4.7-27.6-10.6c0-1.1,0-2.9,0-2.9s15.2-7.7,27.6-7.7
			c12.3,0,27.6,7.3,27.6,7.3S336.6,196.5,336.6,197.6z"/>
		<ellipse class="st26" cx="308.9" cy="194.7" rx="27.6" ry="10.6"/>
		<path class="st27" d="M309.1,139.9L309.1,139.9c-9.1,0-16.5-7.4-16.5-16.5v-5.2h32.9v5.2C325.5,132.5,318.1,139.9,309.1,139.9z"/>
		<line class="st28" x1="309.1" y1="139.9" x2="309.1" y2="191.8"/>
		<path class="st18" d="M309.1,131.6L309.1,131.6c-6.5,0-11.7-5.3-11.7-11.7v-31c0-6.5,5.3-11.7,11.7-11.7h0
			c6.5,0,11.7,5.3,11.7,11.7v31C320.8,126.3,315.5,131.6,309.1,131.6z"/>
		<circle class="st22" cx="309.1" cy="113.7" r="2.1"/>
		<circle class="st22" cx="309.1" cy="122.7" r="2.1"/>
		<path class="st29" d="M309.1,71.8L309.1,71.8c-7.4,0-13.4,6-13.4,13.4v21.4c4,1.4,8.6,2.2,13.4,2.2s9.3-0.8,13.4-2.2V85.2
			C322.4,77.9,316.4,71.8,309.1,71.8z"/>
		<g>
			<defs>
				<path id="SVGID_00000046318322339874162230000003216825139661095301_" d="M309.1,71.8L309.1,71.8c-7.4,0-13.4,6-13.4,13.4v21.4
					c4,1.4,8.6,2.2,13.4,2.2s9.3-0.8,13.4-2.2V85.2C322.4,77.9,316.4,71.8,309.1,71.8z"/>
			</defs>
			<clipPath id="SVGID_00000037693527783885626420000004700069585837732013_">
				<use xlink:href="#SVGID_00000046318322339874162230000003216825139661095301_"  style="overflow:visible;"/>
			</clipPath>
			<g style="clip-path:url(#SVGID_00000037693527783885626420000004700069585837732013_);">
				<g>
					<line class="st31" x1="293.9" y1="34.5" x2="265.4" y2="106.8"/>
					<line class="st31" x1="297.2" y1="35.8" x2="268.7" y2="108.1"/>
					<line class="st31" x1="303.9" y1="38.4" x2="275.4" y2="110.7"/>
					<line class="st31" x1="310.5" y1="41" x2="282" y2="113.3"/>
					<line class="st31" x1="317.1" y1="43.6" x2="288.6" y2="115.9"/>
					<line class="st31" x1="323.8" y1="46.2" x2="295.3" y2="118.6"/>
					<line class="st31" x1="320.4" y1="45.1" x2="291.9" y2="117.4"/>
					<line class="st31" x1="313.8" y1="42.3" x2="285.3" y2="114.6"/>
					<line class="st31" x1="307.2" y1="39.7" x2="278.7" y2="112"/>
					<line class="st31" x1="300.5" y1="37.2" x2="272" y2="109.5"/>
					<line class="st31" x1="327.1" y1="47.6" x2="298.6" y2="119.9"/>
					<line class="st31" x1="330.4" y1="48.9" x2="301.9" y2="121.2"/>
					<line class="st31" x1="337" y1="51.5" x2="308.6" y2="123.8"/>
					<line class="st31" x1="343.7" y1="54.1" x2="315.2" y2="126.4"/>
					<line class="st31" x1="350.3" y1="56.7" x2="321.8" y2="129"/>
					<line class="st31" x1="357" y1="59.3" x2="328.5" y2="131.6"/>
					<line class="st31" x1="353.6" y1="58.2" x2="325.1" y2="130.5"/>
					<line class="st31" x1="347" y1="55.4" x2="318.5" y2="127.7"/>
					<line class="st31" x1="340.4" y1="52.8" x2="311.9" y2="125.1"/>
					<line class="st31" x1="333.7" y1="50.3" x2="305.2" y2="122.6"/>
				</g>
				<g>
					<line class="st31" x1="265.4" y1="59.3" x2="293.9" y2="131.6"/>
					<line class="st31" x1="268.7" y1="58" x2="297.2" y2="130.3"/>
					<line class="st31" x1="275.4" y1="55.4" x2="303.9" y2="127.7"/>
					<line class="st31" x1="282" y1="52.8" x2="310.5" y2="125.1"/>
					<line class="st31" x1="288.6" y1="50.2" x2="317.1" y2="122.5"/>
					<line class="st31" x1="295.3" y1="47.6" x2="323.8" y2="119.9"/>
					<line class="st31" x1="292" y1="49" x2="320.5" y2="121.3"/>
					<line class="st31" x1="285.3" y1="51.5" x2="313.8" y2="123.8"/>
					<line class="st31" x1="278.7" y1="54.1" x2="307.2" y2="126.4"/>
					<line class="st31" x1="272.1" y1="56.9" x2="300.6" y2="129.2"/>
					<line class="st31" x1="298.6" y1="46.2" x2="327.1" y2="118.6"/>
					<line class="st31" x1="301.9" y1="44.9" x2="330.4" y2="117.2"/>
					<line class="st31" x1="308.6" y1="42.3" x2="337" y2="114.6"/>
					<line class="st31" x1="315.2" y1="39.7" x2="343.7" y2="112"/>
					<line class="st31" x1="321.8" y1="37.1" x2="350.3" y2="109.4"/>
					<line class="st31" x1="328.5" y1="34.5" x2="357" y2="106.8"/>
					<line class="st31" x1="325.2" y1="35.9" x2="353.7" y2="108.2"/>
					<line class="st31" x1="318.5" y1="38.4" x2="347" y2="110.7"/>
					<line class="st31" x1="311.9" y1="41" x2="340.4" y2="113.3"/>
					<line class="st31" x1="305.3" y1="43.8" x2="333.8" y2="116.1"/>
				</g>
			</g>
		</g>
		<path class="st32" d="M295.7,106.4c4,1.4,8.6,2.2,13.4,2.2s9.3-0.8,13.4-2.2"/>
	</g>
</g>
<g id="Pop">
</g>
<g id="burk">
	<g>
		<ellipse class="st52" cx="70.7" cy="191.4" rx="19.9" ry="10.2"/>
		<path class="st18" d="M92.9,136.8l-3.9-6c-0.4-0.6-1.1-1-1.8-1H70.8H54.1c-0.7,0-1.4,0.4-1.8,0.9l-3.8,5.6
			c-0.3,0.4-0.4,0.8-0.4,1.3l1.3,51c0,0.2-0.1,0.5-0.1,0.7c0,6,9.5,11,21.3,11c11.8,0,21.3-4.9,21.3-11h0.1l1.2-51.4
			C93.3,137.6,93.2,137.2,92.9,136.8z"/>
		<path class="st52" d="M90,129.9c0-3.8-8.6-6.9-19.3-6.9s-19.3,3.1-19.3,6.9c0,0.1,0,0.1,0,0.2c0,0.1,0,0.1,0,0.2
			c0,3.7,8.8,7.3,19.3,7.3s19.3-3.4,19.3-7.2c0-0.1,0-0.2,0-0.3C90,130.1,90,130,90,129.9z"/>
		<ellipse class="st53" cx="70.7" cy="129.4" rx="17.8" ry="5.9"/>
		<path class="st54" d="M70.7,125.4c9.3,0,16.9,2,17.5,4.9c0.1-0.3,0.2-0.6,0.2-0.9c0-3.3-8-5.9-17.8-5.9c-9.8,0-17.8,2.6-17.8,5.9
			c0,0.3,0.1,0.6,0.2,0.9C53.8,127.4,61.4,125.4,70.7,125.4z"/>
		<g>
			<path class="st55" d="M69.9,129.4c-2.9,0-6.1,0.5-6.6,1.4c-0.6,1.1,0.5,2.4,6.6,2.4c6.1,0,7.1-1.5,6.6-2.6
				C75.9,129.8,72.8,129.4,69.9,129.4z"/>
			<g>
				<path class="st56" d="M74.3,128.8c-0.2-0.4-0.3-0.8-0.5-1.1c-0.9-0.8-2.3-0.7-3.4-0.8c-1.2,0-2.4,0.1-3.5,0.5
					c-0.4,0.1-0.7,0.3-0.8,0.6c-0.2,0.4-0.3,0.8-0.5,1.1c-0.3,0.3-0.7,0.4-1.1,0.6c-1.1,0.5-4.1,1.6-2,2.8c1.8,1.5,15.5,1.8,15.5-1
					c-0.5-1-1.9-1.4-2.8-2C74.9,129.4,74.4,129.2,74.3,128.8L74.3,128.8z M74.3,128.8c1.1,1.1,3,1.1,4,2.6
					c0.2,3.4-13.8,2.8-15.8,1.2c-2.2-1.3,0.8-2.6,1.9-3.1c0.4-0.2,0.8-0.3,1-0.5c0.2-0.3,0.3-0.7,0.4-1.1c0.1-0.5,0.6-0.6,1-0.8
					c1.9-0.6,4-0.5,5.9,0c0.4,0.1,0.8,0.3,1,0.6C74,128.1,74.1,128.5,74.3,128.8L74.3,128.8z"/>
			</g>
		</g>
		<path class="st52" d="M74.7,120.1c-0.1-0.9-0.8-2.2-1.1-2.6c-0.3-0.4-1.8-0.9-3.7-0.9c-1.9,0-3.2,0.6-3.4,0.9
			c-0.3,0.3-1.1,1.5-1.2,2.5c-0.1,2.5-0.2,6.3-0.2,7.3c-0.9,2.9,2.1,3.6,4.9,3.6s5.2-1,4.6-3.6C74.4,126.1,75.1,122.6,74.7,120.1z
			 M69.9,117.5c1.9,0,3.1,1.1,3.1,2.4c0.1,2.1-1.1,2.1-3.1,2.1s-3.2-0.4-3.1-2.1C66.9,118.5,68,117.5,69.9,117.5z M73.1,129.4
			c-0.2,0-0.5,0.1-0.7,0.1c-0.2,0-0.3,0-0.4-0.3c-0.1-0.2-0.1-0.2-0.1-0.6s-0.1-1.2-0.1-1.7c-0.1-1.1-0.8-2-2-2
			c-1.2,0-1.8,0.9-1.9,2c0,0.4,0,1.3-0.1,1.6c-0.1,0.3-0.1,0.4-0.1,0.6c-0.1,0.2-0.1,0.2-0.3,0.2c-0.2,0-0.5,0-0.6-0.1
			c-0.2,0-0.2-0.1-0.2-0.3c0-0.2,0-0.2,0.1-0.6c0.1-0.3,0.1-1.2,0.1-1.6c0.2-1.7,1.4-3,3.2-3c1.8,0,2.8,1.4,3,3.1
			c0.1,0.4,0.1,1.2,0.1,1.6c0.1,0.3,0.1,0.4,0.2,0.6C73.4,129.2,73.3,129.3,73.1,129.4z"/>
		<g>
			<path class="st35" d="M48.3,137.6c9.6,7.6,27.8,6.3,38.9,2.6c1.8-0.6,3.6-1.4,5.3-2.3C81.6,145.2,58.3,147.2,48.3,137.6
				L48.3,137.6z"/>
		</g>
		<g>
			<path class="st52" d="M71.1,128.6c0,0.5-0.6,1-1.3,1s-1.3-0.5-1.3-1c0-0.5,0.6-1,1.3-1C70.5,127.6,71.1,128.1,71.1,128.6z"/>
			<path class="st57" d="M71.1,128.6c0,1.5-2.5,1.4-2.7,0C68.5,127.1,71.1,127.2,71.1,128.6L71.1,128.6z M71.1,128.6
				c-0.2-1.2-2.4-1.1-2.5,0C68.6,129.9,71,129.8,71.1,128.6L71.1,128.6z"/>
		</g>
	</g>
</g>
<g id="GT_2">
</g>
<g id="Dator">
	<path class="st52" d="M250.5,9.7h-28.9c-0.9,0-1.6,0.5-2,1.3l-0.7,1.5c-0.3,0.8-1.1,1.3-2,1.3h-72.2c-0.9,0-1.6-0.5-2-1.3l-0.7-1.5
		c-0.3-0.8-1.1-1.3-2-1.3h-28.9c-0.3,0-0.5,0-0.8,0.1L81.3,20.2l187.5,0.4c0,0,12.6,0,12.6,0l-30-10.9C251,9.7,250.8,9.7,250.5,9.7z
		"/>
	<g>
		<path class="st53" d="M264.6,228.9H98c-2.1,0-3.9-1.6-4.1-3.8L78.6,24.6c-0.2-2.4,1.7-4.4,4.1-4.4h197.1c2.4,0,4.3,2,4.1,4.4
			l-15.3,200.5C268.5,227.3,266.7,228.9,264.6,228.9z"/>
		<path class="st52" d="M259.1,223H102.7c-2.3,0-4.2-1.8-4.4-4.1l-13-181.4c-0.2-2.5,1.8-4.7,4.4-4.7H272c2.5,0,4.5,2.2,4.4,4.7
			L263.5,219C263.3,221.3,261.4,223,259.1,223z"/>
	</g>
	<g>
		<path class="st53" d="M251.6,170c-46.9,2.6-93.7,2.6-140.7,0c-2.4-0.1-4.4-1.9-4.7-4.3c-5.7-35.4-8.2-72.9-7-112.7
			c0.1-2.6,2.2-4.8,4.8-4.9c51.5-3.2,103.1-3.2,154.6,0c2.6,0.2,4.7,2.3,4.8,4.9c1.2,39.8-1.3,77.3-7,112.7
			C256,168.1,254,169.8,251.6,170z"/>
		<path class="st55" d="M243.3,159.8c-41.3,1.6-82.6,1.6-123.9,0c-3.7-0.1-6.8-3-7.3-6.7c-3.5-28.6-5.2-58.6-4.8-90.1
			c0-4,3.2-7.4,7.3-7.6c44.5-2.1,89.1-2.1,133.5,0c4,0.2,7.2,3.5,7.3,7.6c0.4,31.5-1.3,61.5-4.8,90.1
			C250.1,156.8,247,159.7,243.3,159.8z"/>
	</g>
	<g>
		<polygon class="st77" points="118.7,213.2 106.6,213.2 105.8,201.1 118.1,201.1 		"/>
		<g>
			<polygon class="st55" points="253.2,200.5 199.5,200.5 199.5,198.4 253.3,198.4 			"/>
			<polygon class="st55" points="253,203.4 236.2,203.4 236.5,195.5 253.5,195.5 			"/>
		</g>
	</g>
	<path class="st54" d="M315.6,324.9H47c-2.1,0-4.2-1.3-4.7-3l-1.7-8.5H322l-1.7,8.5C319.9,323.6,317.8,324.9,315.6,324.9z"/>
	<path class="st53" d="M77.2,227.4h209.6c0.6,0,1.2,0.4,1.4,1l33.6,83.5c0.8,2-0.7,4.1-2.8,4.1H43.6c-2.1,0-3.6-2.2-2.7-4.1
		l34.9-83.5C76,227.8,76.5,227.4,77.2,227.4z"/>
	<path class="st52" d="M47.6,301.4l30-70.5l208.4,0l29,72.7c0.2,0.8-0.3,1.5-1,1.5l-265.7-2.4C47.7,302.6,47.4,302,47.6,301.4z"/>
	<g>
		<path class="st7" d="M41.7,319c0.7,1.4,2.4,1.5,3.8,1.5c0,0,4.4,0,4.4,0l8.8,0c82.3,0.1,171.6-0.1,254.1,0.3c0,0,4.4,0,4.4,0
			c1.4,0.1,3.1-0.3,3.8-1.5c-0.7,1.4-2.4,1.7-3.8,1.6c0,0-4.4,0-4.4,0c-82.5,0.2-171.7-0.1-254.1-0.2c0,0-8.8-0.1-8.8-0.1l-4.4,0
			C44.1,320.6,42.3,320.4,41.7,319C41.7,319,41.7,319,41.7,319L41.7,319z"/>
	</g>
</g>
<g id="knappar">
	<g>
		<polygon class="st55" points="100,249.2 86.9,249.2 90.9,239.4 92,237.2 101.5,237.2 103.3,239.4 		"/>
		<polygon class="st55" points="256.1,249.2 243.1,249.2 240.5,239.4 243.7,237.2 253,239.4 		"/>
		<polygon class="st55" points="243.1,249.2 230.1,249.2 228.1,239.4 231,237.2 240.5,239.4 		"/>
		<polygon class="st55" points="230.1,249.2 217.1,249.2 215.6,239.4 218.4,237.2 227.9,237.2 228.1,239.4 		"/>
		<polygon class="st55" points="217.1,249.2 204.1,249.2 203.1,239.4 205.8,237.2 215.3,237.2 215.6,239.4 		"/>
		<polygon class="st55" points="204.1,249.2 191,249.2 190.6,239.4 193.1,237.2 202.6,237.2 203.1,239.4 		"/>
		<polygon class="st55" points="191,249.2 178,249.2 178.2,239.4 180.5,237.2 190,237.2 190.6,239.4 		"/>
		<polygon class="st55" points="178,249.2 165,249.2 165.7,239.4 167.9,237.2 177.3,237.2 178.2,239.4 		"/>
		<polygon class="st55" points="165,249.2 152,249.2 153.2,239.4 155.2,237.2 164.7,237.2 165.7,239.4 		"/>
		<polygon class="st55" points="152,249.2 139,249.2 140.7,239.4 142.6,237.2 152.1,237.2 153.2,239.4 		"/>
		<polygon class="st55" points="139,249.2 126,249.2 128.3,239.4 129.9,237.2 139.4,237.2 140.7,239.4 		"/>
		<polygon class="st55" points="126,249.2 113,249.2 115.8,239.4 117.3,237.2 126.8,237.2 128.3,239.4 		"/>
		<polygon class="st55" points="113,249.2 100,249.2 103.3,239.4 104.7,237.2 114.2,237.2 115.8,239.4 		"/>
		<polygon class="st55" points="275.6,249.2 256.1,249.2 253,239.4 256.3,237.2 270.5,237.2 271.7,239.4 		"/>
		<polygon class="st55" points="259.6,271.6 284.6,271.6 279.9,259.9 256.1,259.9 		"/>
		<polygon class="st55" points="102.9,271.6 117.2,271.6 120.1,259.9 106.5,259.9 		"/>
		<polygon class="st55" points="117.2,271.6 131.4,271.6 133.7,259.9 120.1,259.9 		"/>
		<polygon class="st55" points="131.4,271.6 145.7,271.6 147.3,259.9 133.7,259.9 		"/>
		<polygon class="st55" points="145.7,271.6 159.9,271.6 160.9,259.9 147.3,259.9 		"/>
		<polygon class="st55" points="159.9,271.6 174.2,271.6 174.5,259.9 160.9,259.9 		"/>
		<polygon class="st55" points="174.2,271.6 188.4,271.6 188.1,259.9 174.5,259.9 		"/>
		<polygon class="st55" points="188.4,271.6 202.7,271.6 201.7,259.9 188.1,259.9 		"/>
		<polygon class="st55" points="202.7,271.6 216.9,271.6 215.3,259.9 201.7,259.9 		"/>
		<polygon class="st55" points="216.9,271.6 231.1,271.6 228.9,259.9 215.3,259.9 		"/>
		<polygon class="st55" points="231.1,271.6 245.4,271.6 242.5,259.9 228.9,259.9 		"/>
		<polygon class="st55" points="245.4,271.6 259.6,271.6 256.1,259.9 242.5,259.9 		"/>
		<polygon class="st55" points="78,271.6 102.9,271.6 106.5,259.9 82.7,259.9 		"/>
		<polygon class="st55" points="262.6,249.2 275.6,249.2 279.9,259.9 266.3,259.9 		"/>
		<polygon class="st55" points="106.5,249.2 119.5,249.2 116.7,259.9 103.1,259.9 		"/>
		<polygon class="st55" points="119.5,249.2 132.5,249.2 130.3,259.9 116.7,259.9 		"/>
		<polygon class="st55" points="132.5,249.2 145.5,249.2 143.9,259.9 130.3,259.9 		"/>
		<polygon class="st55" points="145.5,249.2 158.5,249.2 157.5,259.9 143.9,259.9 		"/>
		<polygon class="st55" points="158.5,249.2 171.5,249.2 171.1,259.9 157.5,259.9 		"/>
		<polygon class="st55" points="171.5,249.2 184.5,249.2 184.7,259.9 171.1,259.9 		"/>
		<polygon class="st55" points="184.5,249.2 197.6,249.2 198.3,259.9 184.7,259.9 		"/>
		<polygon class="st55" points="197.6,249.2 210.6,249.2 211.9,259.9 198.3,259.9 		"/>
		<polygon class="st55" points="210.6,249.2 223.6,249.2 225.5,259.9 211.9,259.9 		"/>
		<polygon class="st55" points="223.6,249.2 236.6,249.2 239.1,259.9 225.5,259.9 		"/>
		<polygon class="st55" points="236.6,249.2 249.6,249.2 252.7,259.9 239.1,259.9 		"/>
		<polygon class="st55" points="249.6,249.2 262.6,249.2 266.3,259.9 252.7,259.9 		"/>
		<polygon class="st55" points="86.9,249.2 106.5,249.2 103.1,259.9 82.7,259.9 		"/>
		<polygon class="st55" points="101.9,298.6 130,298.6 132.5,284.4 105.9,284.4 		"/>
		<path class="st55" d="M87.9,298.6h14l3.9-14.2h-15L86.7,297C86.5,297.8,87.1,298.6,87.9,298.6z"/>
		<polygon class="st55" points="232.6,298.6 260.6,298.6 256.7,284.4 230,284.4 		"/>
		<polygon class="st55" points="132.5,284.4 130,298.6 232.6,298.6 230,284.4 		"/>
		<path class="st55" d="M260.6,298.6h14c0.9,0,1.5-0.8,1.2-1.6l-4.2-12.6h-15L260.6,298.6z"/>
		<path class="st55" d="M256.1,284.4h31.8c0.9,0,1.5-0.9,1.2-1.7l-4.4-11.1h-32.1L256.1,284.4z"/>
		<polygon class="st55" points="106.5,284.4 121.5,284.4 124.3,271.6 110.1,271.6 		"/>
		<polygon class="st55" points="121.5,284.4 136.4,284.4 138.6,271.6 124.3,271.6 		"/>
		<polygon class="st55" points="136.4,284.4 151.4,284.4 152.8,271.6 138.6,271.6 		"/>
		<polygon class="st55" points="151.4,284.4 166.3,284.4 167,271.6 152.8,271.6 		"/>
		<polygon class="st55" points="166.3,284.4 181.3,284.4 181.3,271.6 167,271.6 		"/>
		<polygon class="st55" points="181.3,284.4 196.2,284.4 195.5,271.6 181.3,271.6 		"/>
		<polygon class="st55" points="196.2,284.4 211.2,284.4 209.8,271.6 195.5,271.6 		"/>
		<polygon class="st55" points="211.2,284.4 226.2,284.4 224,271.6 209.8,271.6 		"/>
		<polygon class="st55" points="226.2,284.4 241.1,284.4 238.3,271.6 224,271.6 		"/>
		<polygon class="st55" points="241.1,284.4 256.1,284.4 252.5,271.6 238.3,271.6 		"/>
		<path class="st55" d="M74.7,284.4h31.8l3.5-12.8H78l-4.4,11.1C73.2,283.5,73.8,284.4,74.7,284.4z"/>
	</g>
	<g>
		<g>
			<path class="st53" d="M98,244.6h-7.1c-0.9,0-1.5-0.9-1.2-1.7l1.9-4.9c0.2-0.5,0.6-0.8,1.2-0.8h6.9c0.9,0,1.5,0.9,1.2,1.7
				l-1.7,4.9C99,244.3,98.6,244.6,98,244.6z"/>
			<path class="st53" d="M253.8,244.6h-7.1c-0.6,0-1.1-0.4-1.2-0.9l-1.4-4.9c-0.2-0.8,0.4-1.6,1.2-1.6h6.9c0.5,0,1,0.3,1.2,0.9
				l1.6,4.9C255.3,243.8,254.7,244.6,253.8,244.6z"/>
			<path class="st53" d="M240.9,244.6h-7.2c-0.6,0-1.1-0.4-1.2-1l-1.1-4.9c-0.2-0.8,0.4-1.5,1.2-1.5h7c0.6,0,1.1,0.4,1.2,0.9
				l1.3,4.9C242.3,243.8,241.7,244.6,240.9,244.6z"/>
			<path class="st53" d="M227.9,244.6h-7.2c-0.6,0-1.1-0.4-1.2-1l-0.8-4.9c-0.1-0.8,0.5-1.4,1.2-1.4h7c0.6,0,1.1,0.4,1.2,1l1,4.9
				C229.3,243.9,228.7,244.6,227.9,244.6z"/>
			<path class="st53" d="M214.9,244.6h-7.2c-0.6,0-1.2-0.5-1.2-1.1l-0.5-4.9c-0.1-0.7,0.5-1.4,1.2-1.4h7c0.6,0,1.1,0.5,1.2,1.1
				l0.7,4.9C216.3,243.9,215.7,244.6,214.9,244.6z"/>
			<path class="st53" d="M201.9,244.6h-7.2c-0.7,0-1.2-0.5-1.2-1.2l-0.3-4.9c0-0.7,0.5-1.3,1.2-1.3h7c0.6,0,1.2,0.5,1.2,1.1l0.5,4.9
				C203.3,244,202.7,244.6,201.9,244.6z"/>
			<path class="st53" d="M189,244.6h-7.3c-0.7,0-1.2-0.6-1.2-1.3l0-4.9c0-0.7,0.6-1.2,1.2-1.2h7.1c0.7,0,1.2,0.5,1.2,1.2l0.2,4.9
				C190.2,244,189.7,244.6,189,244.6z"/>
			<path class="st53" d="M176,244.6h-7.3c-0.7,0-1.3-0.6-1.2-1.3l0.3-4.9c0-0.7,0.6-1.2,1.2-1.2h7c0.7,0,1.3,0.6,1.2,1.3l-0.1,4.9
				C177.2,244,176.7,244.6,176,244.6z"/>
			<path class="st53" d="M163,244.6h-7.2c-0.7,0-1.3-0.6-1.2-1.4l0.6-4.9c0.1-0.6,0.6-1.1,1.2-1.1h7c0.7,0,1.3,0.6,1.2,1.3l-0.4,4.9
				C164.2,244.1,163.7,244.6,163,244.6z"/>
			<path class="st53" d="M150,244.6h-7.2c-0.8,0-1.4-0.7-1.2-1.5l0.8-4.9c0.1-0.6,0.6-1,1.2-1h7c0.8,0,1.3,0.7,1.2,1.4l-0.6,4.9
				C151.2,244.1,150.6,244.6,150,244.6z"/>
			<path class="st53" d="M137,244.6h-7.2c-0.8,0-1.4-0.7-1.2-1.5l1.1-4.9c0.1-0.6,0.6-1,1.2-1h7c0.8,0,1.4,0.7,1.2,1.5l-0.9,4.9
				C138.1,244.2,137.6,244.6,137,244.6z"/>
			<path class="st53" d="M124,244.6h-7.2c-0.8,0-1.4-0.8-1.2-1.6l1.4-4.9c0.2-0.5,0.6-0.9,1.2-0.9h7c0.8,0,1.4,0.8,1.2,1.5l-1.2,4.9
				C125.1,244.2,124.6,244.6,124,244.6z"/>
			<path class="st53" d="M111,244.6h-7.1c-0.9,0-1.5-0.8-1.2-1.6l1.7-4.9c0.2-0.5,0.6-0.8,1.2-0.8h6.9c0.8,0,1.4,0.8,1.2,1.6
				l-1.5,4.9C112.1,244.2,111.6,244.6,111,244.6z"/>
			<path class="st53" d="M271.6,244.6h-12c-0.5,0-1-0.3-1.2-0.9l-1.6-4.9c-0.3-0.8,0.3-1.6,1.2-1.6h11.7c0.5,0,1,0.3,1.2,0.8
				l1.9,4.9C273.1,243.7,272.5,244.6,271.6,244.6z"/>
		</g>
		<g>
			<path class="st53" d="M262.6,266.8h17.8c0.9,0,1.5-0.9,1.2-1.7l-2.5-6.3c-0.2-0.5-0.6-0.8-1.2-0.8h-17.3c-0.8,0-1.4,0.8-1.2,1.6
				l2,6.3C261.6,266.4,262.1,266.8,262.6,266.8z"/>
			<path class="st53" d="M106.1,266.8h8.1c0.6,0,1.1-0.4,1.2-0.9l1.6-6.3c0.2-0.8-0.4-1.6-1.2-1.6H108c-0.5,0-1,0.4-1.2,0.9
				l-1.9,6.3C104.7,266,105.3,266.8,106.1,266.8z"/>
			<path class="st53" d="M120.3,266.8h8.1c0.6,0,1.1-0.4,1.2-1l1.3-6.3c0.2-0.8-0.4-1.5-1.2-1.5h-7.9c-0.6,0-1.1,0.4-1.2,0.9
				l-1.6,6.3C118.9,266,119.5,266.8,120.3,266.8z"/>
			<path class="st53" d="M134.5,266.8h8.2c0.6,0,1.1-0.5,1.2-1.1l0.9-6.3c0.1-0.8-0.5-1.4-1.2-1.4h-7.9c-0.6,0-1.1,0.4-1.2,1
				l-1.2,6.3C133.2,266.1,133.7,266.8,134.5,266.8z"/>
			<path class="st53" d="M148.7,266.8h8.2c0.6,0,1.2-0.5,1.2-1.1l0.6-6.3c0.1-0.7-0.5-1.4-1.2-1.4h-7.9c-0.6,0-1.2,0.5-1.2,1.1
				l-0.8,6.3C147.4,266.1,148,266.8,148.7,266.8z"/>
			<path class="st53" d="M163,266.8h8.2c0.7,0,1.2-0.5,1.2-1.2l0.2-6.3c0-0.7-0.5-1.3-1.2-1.3h-7.9c-0.7,0-1.2,0.5-1.2,1.1l-0.5,6.3
				C161.7,266.1,162.2,266.8,163,266.8z"/>
			<path class="st53" d="M177.2,266.8h8.2c0.7,0,1.3-0.6,1.2-1.3l-0.1-6.3c0-0.7-0.6-1.2-1.2-1.2h-7.9c-0.7,0-1.2,0.5-1.2,1.2
				l-0.1,6.3C175.9,266.2,176.5,266.8,177.2,266.8z"/>
			<path class="st53" d="M191.4,266.8h8.2c0.7,0,1.3-0.6,1.2-1.3l-0.5-6.3c-0.1-0.6-0.6-1.1-1.2-1.1h-7.9c-0.7,0-1.3,0.6-1.2,1.3
				l0.2,6.3C190.2,266.2,190.8,266.8,191.4,266.8z"/>
			<path class="st53" d="M205.7,266.8h8.2c0.8,0,1.3-0.7,1.2-1.4l-0.8-6.3c-0.1-0.6-0.6-1.1-1.2-1.1h-7.9c-0.7,0-1.3,0.6-1.2,1.4
				l0.6,6.3C204.5,266.3,205,266.8,205.7,266.8z"/>
			<path class="st53" d="M219.9,266.8h8.2c0.8,0,1.4-0.7,1.2-1.5l-1.2-6.3c-0.1-0.6-0.6-1-1.2-1H219c-0.8,0-1.3,0.7-1.2,1.4l0.9,6.3
				C218.8,266.3,219.3,266.8,219.9,266.8z"/>
			<path class="st53" d="M234.1,266.8h8.1c0.8,0,1.4-0.8,1.2-1.5l-1.6-6.3c-0.1-0.6-0.6-0.9-1.2-0.9h-7.9c-0.8,0-1.4,0.7-1.2,1.5
				l1.3,6.3C233,266.3,233.5,266.8,234.1,266.8z"/>
			<path class="st53" d="M248.4,266.8h8.1c0.8,0,1.4-0.8,1.2-1.6l-1.9-6.3c-0.2-0.5-0.6-0.9-1.2-0.9h-7.8c-0.8,0-1.4,0.8-1.2,1.6
				l1.6,6.3C247.3,266.4,247.8,266.8,248.4,266.8z"/>
			<path class="st53" d="M82.1,266.8h17.7c0.5,0,1-0.4,1.2-0.9l2-6.3c0.3-0.8-0.3-1.6-1.2-1.6H84.6c-0.5,0-1,0.3-1.2,0.8l-2.5,6.3
				C80.6,265.9,81.2,266.8,82.1,266.8z"/>
		</g>
		<g>
			<path class="st53" d="M266.3,247.1h7.3c0.5,0,1,0.3,1.2,0.8l2.2,5.5c0.3,0.8-0.3,1.7-1.2,1.7h-7.5c-0.5,0-1-0.3-1.2-0.8l-2-5.5
				C264.9,248,265.5,247.1,266.3,247.1z"/>
			<path class="st53" d="M107.2,247.1h7.4c0.8,0,1.4,0.8,1.2,1.6l-1.5,5.5c-0.1,0.5-0.6,0.9-1.2,0.9h-7.6c-0.8,0-1.4-0.8-1.2-1.6
				l1.8-5.5C106.1,247.5,106.6,247.1,107.2,247.1z"/>
			<path class="st53" d="M120.4,247.1h7.4c0.8,0,1.4,0.7,1.2,1.5l-1.2,5.5c-0.1,0.6-0.6,1-1.2,1h-7.6c-0.8,0-1.4-0.8-1.2-1.6
				l1.5-5.5C119.3,247.5,119.8,247.1,120.4,247.1z"/>
			<path class="st53" d="M133.6,247.1h7.4c0.8,0,1.4,0.7,1.2,1.4l-0.9,5.5c-0.1,0.6-0.6,1-1.2,1h-7.7c-0.8,0-1.4-0.7-1.2-1.5
				l1.2-5.5C132.5,247.6,133.1,247.1,133.6,247.1z"/>
			<path class="st53" d="M146.9,247.1h7.4c0.7,0,1.3,0.6,1.2,1.4l-0.6,5.5c-0.1,0.6-0.6,1.1-1.2,1.1h-7.7c-0.8,0-1.3-0.7-1.2-1.4
				l0.8-5.5C145.8,247.6,146.3,247.1,146.9,247.1z"/>
			<path class="st53" d="M160.2,247.1h7.5c0.7,0,1.3,0.6,1.2,1.3l-0.3,5.5c0,0.7-0.6,1.2-1.2,1.2h-7.7c-0.7,0-1.3-0.6-1.2-1.4
				l0.5-5.5C159,247.6,159.5,247.1,160.2,247.1z"/>
			<path class="st53" d="M173.4,247.1h7.5c0.7,0,1.2,0.6,1.2,1.2l0,5.5c0,0.7-0.6,1.3-1.2,1.3h-7.7c-0.7,0-1.3-0.6-1.2-1.3l0.2-5.5
				C172.2,247.7,172.7,247.1,173.4,247.1z"/>
			<path class="st53" d="M186.7,247.1h7.5c0.7,0,1.2,0.5,1.2,1.2l0.3,5.5c0,0.7-0.5,1.3-1.2,1.3h-7.7c-0.7,0-1.2-0.5-1.2-1.2
				l-0.1-5.5C185.4,247.7,186,247.1,186.7,247.1z"/>
			<path class="st53" d="M199.9,247.1h7.5c0.6,0,1.2,0.5,1.2,1.1l0.6,5.5c0.1,0.7-0.5,1.4-1.2,1.4h-7.7c-0.7,0-1.2-0.5-1.2-1.2
				l-0.4-5.5C198.6,247.8,199.2,247.1,199.9,247.1z"/>
			<path class="st53" d="M213.2,247.1h7.4c0.6,0,1.1,0.4,1.2,1l1,5.5c0.1,0.8-0.5,1.5-1.2,1.5l-7.7,0c-0.6,0-1.2-0.5-1.2-1.1
				l-0.7-5.5C211.9,247.8,212.5,247.1,213.2,247.1z"/>
			<path class="st53" d="M226.5,247.1l7.4,0c0.6,0,1.1,0.4,1.2,1l1.3,5.5c0.2,0.8-0.4,1.5-1.2,1.5h-7.7c-0.6,0-1.1-0.4-1.2-1l-1-5.5
				C225.1,247.8,225.7,247.1,226.5,247.1z"/>
			<path class="st53" d="M239.8,247.1h7.4c0.6,0,1,0.4,1.2,0.9l1.6,5.5c0.2,0.8-0.4,1.6-1.2,1.6h-7.6c-0.6,0-1.1-0.4-1.2-1l-1.3-5.5
				C238.4,247.9,239,247.1,239.8,247.1z"/>
			<path class="st53" d="M253.1,247.1h7.3c0.5,0,1,0.3,1.2,0.8l1.9,5.5c0.3,0.8-0.3,1.6-1.2,1.6h-7.6c-0.6,0-1-0.4-1.2-0.9l-1.7-5.5
				C251.6,247.9,252.2,247.1,253.1,247.1z"/>
			<path class="st53" d="M88.9,247.1l12.3,0c0.9,0,1.5,0.8,1.2,1.6l-1.9,5.5c-0.2,0.5-0.6,0.9-1.2,0.9H86.7c-0.9,0-1.5-0.9-1.2-1.7
				l2.2-5.5C88,247.4,88.4,247.1,88.9,247.1z"/>
		</g>
		<path class="st53" d="M107.6,293.6h19.9c0.6,0,1.1-0.4,1.2-1l1.5-8.2c0.1-0.8-0.4-1.5-1.2-1.5h-19.3c-0.6,0-1.1,0.4-1.2,0.9
			l-2.2,8.2C106.2,292.9,106.8,293.6,107.6,293.6z"/>
		<path class="st53" d="M91.9,293.6h9.2c0.6,0,1-0.4,1.2-0.9l2.3-8.2c0.2-0.8-0.4-1.6-1.2-1.6h-8.9c-0.5,0-1,0.3-1.2,0.9l-2.7,8.2
			C90.5,292.8,91.1,293.6,91.9,293.6z"/>
		<path class="st53" d="M235.1,293.6h19.9c0.8,0,1.4-0.8,1.2-1.6l-2.2-8.2c-0.1-0.5-0.6-0.9-1.2-0.9h-19.2c-0.8,0-1.4,0.7-1.2,1.5
			l1.5,8.2C233.9,293.2,234.5,293.6,235.1,293.6z"/>
		<path class="st53" d="M224.3,282.9h-8.1h-80.8c-0.6,0-1.1,0.4-1.2,1l-1.4,8.2c-0.1,0.8,0.5,1.5,1.2,1.5h83.6h8.4h2.6
			c0.8,0,1.4-0.7,1.2-1.5l-1.4-8.2c-0.1-0.6-0.6-1-1.2-1H224.3z"/>
		<path class="st53" d="M261.5,293.6h9.2c0.8,0,1.4-0.8,1.2-1.6l-2.7-8.2c-0.2-0.5-0.6-0.9-1.2-0.9h-8.9c-0.8,0-1.4,0.8-1.2,1.6
			l2.3,8.2C260.4,293.3,260.9,293.6,261.5,293.6z"/>
		<g>
			<path class="st53" d="M259.2,279.5h26.3c0.9,0,1.5-0.9,1.2-1.7l-2.9-7.2c-0.2-0.5-0.6-0.8-1.2-0.8h-25.6c-0.8,0-1.4,0.8-1.2,1.6
				l2.1,7.2C258.1,279.2,258.6,279.5,259.2,279.5z"/>
			<path class="st53" d="M109.7,279.5h8.7c0.6,0,1.1-0.4,1.2-1l1.7-7.2c0.2-0.8-0.4-1.5-1.2-1.5h-8.4c-0.6,0-1.1,0.4-1.2,0.9l-2,7.2
				C108.3,278.7,108.9,279.5,109.7,279.5z"/>
			<path class="st53" d="M124.6,279.5h8.7c0.6,0,1.1-0.4,1.2-1l1.3-7.2c0.1-0.8-0.5-1.5-1.2-1.5h-8.4c-0.6,0-1.1,0.4-1.2,1l-1.6,7.2
				C123.2,278.8,123.8,279.5,124.6,279.5z"/>
			<path class="st53" d="M139.6,279.5h8.7c0.6,0,1.2-0.5,1.2-1.1l0.9-7.2c0.1-0.7-0.5-1.4-1.2-1.4h-8.4c-0.6,0-1.1,0.4-1.2,1
				l-1.2,7.2C138.2,278.8,138.8,279.5,139.6,279.5z"/>
			<path class="st53" d="M154.5,279.5h8.7c0.7,0,1.2-0.5,1.2-1.2l0.5-7.2c0-0.7-0.5-1.3-1.2-1.3h-8.4c-0.6,0-1.2,0.5-1.2,1.1
				l-0.8,7.2C153.2,278.9,153.8,279.5,154.5,279.5z"/>
			<path class="st53" d="M169.4,279.5h8.7c0.7,0,1.2-0.6,1.2-1.2l0.1-7.2c0-0.7-0.6-1.3-1.2-1.3h-8.4c-0.7,0-1.2,0.5-1.2,1.2
				l-0.4,7.2C168.2,278.9,168.7,279.5,169.4,279.5z"/>
			<path class="st53" d="M184.4,279.5h8.7c0.7,0,1.3-0.6,1.2-1.3L194,271c0-0.7-0.6-1.2-1.2-1.2h-8.4c-0.7,0-1.3,0.6-1.2,1.3
				l0.1,7.2C183.2,279,183.7,279.5,184.4,279.5z"/>
			<path class="st53" d="M199.3,279.5h8.7c0.7,0,1.3-0.6,1.2-1.4l-0.8-7.2c-0.1-0.6-0.6-1.1-1.2-1.1h-8.4c-0.7,0-1.3,0.6-1.2,1.3
				l0.5,7.2C198.1,279,198.7,279.5,199.3,279.5z"/>
			<path class="st53" d="M214.3,279.5h8.7c0.8,0,1.4-0.7,1.2-1.4l-1.2-7.2c-0.1-0.6-0.6-1-1.2-1h-8.4c-0.7,0-1.3,0.7-1.2,1.4
				l0.9,7.2C213.1,279,213.7,279.5,214.3,279.5z"/>
			<path class="st53" d="M229.3,279.5h8.7c0.8,0,1.4-0.7,1.2-1.5l-1.6-7.2c-0.1-0.6-0.6-1-1.2-1H228c-0.8,0-1.4,0.7-1.2,1.5l1.3,7.2
				C228.1,279.1,228.7,279.5,229.3,279.5z"/>
			<path class="st53" d="M244.2,279.5h8.7c0.8,0,1.4-0.8,1.2-1.6l-2-7.2c-0.1-0.5-0.6-0.9-1.2-0.9h-8.4c-0.8,0-1.4,0.7-1.2,1.5
				l1.7,7.2C243.1,279.1,243.6,279.5,244.2,279.5z"/>
			<path class="st53" d="M77,279.5h26.3c0.6,0,1-0.4,1.2-0.9l2.1-7.2c0.2-0.8-0.4-1.6-1.2-1.6H79.9c-0.5,0-1,0.3-1.2,0.8l-2.9,7.2
				C75.6,278.6,76.2,279.5,77,279.5z"/>
		</g>
	</g>
	<g>
		<defs>
			<path id="SVGID_00000178883372527523306130000011259120261907689349_" d="M115.1,207.3c0-1.3,1.1-1.9,1.1-2c-0.6-0.9-1.5-1-1.9-1
				c-0.8-0.1-1.6,0.5-2,0.5c-0.4,0-1-0.5-1.7-0.4c-0.9,0-1.7,0.5-2.1,1.3c-0.9,1.6-0.2,3.9,0.7,5.2c0.4,0.6,0.9,1.3,1.6,1.3
				c0.7,0,0.9-0.4,1.7-0.4c0.8,0,1,0.4,1.7,0.4c0.7,0,1.1-0.6,1.6-1.3c0.5-0.7,0.7-1.4,0.7-1.5C116.4,209.4,115.1,208.8,115.1,207.3
				L115.1,207.3L115.1,207.3z M113.8,203.5c0.4-0.4,0.6-1,0.5-1.6c-0.5,0-1.1,0.3-1.5,0.8c-0.3,0.4-0.6,1-0.5,1.6
				C112.8,204.2,113.4,203.9,113.8,203.5C113.8,203.5,113.8,203.5,113.8,203.5z"/>
		</defs>
		<clipPath id="SVGID_00000150795497654795721240000013039906394272523416_">
			<use xlink:href="#SVGID_00000178883372527523306130000011259120261907689349_"  style="overflow:visible;"/>
		</clipPath>
		<g style="clip-path:url(#SVGID_00000150795497654795721240000013039906394272523416_);">
			
				<rect x="105.1" y="201" transform="matrix(0.9997 -2.504897e-02 2.504897e-02 0.9997 -5.0536 2.8857)" class="st81" width="15.1" height="4.3"/>
			
				<rect x="105.2" y="205" transform="matrix(0.9997 -2.504899e-02 2.504899e-02 0.9997 -5.1184 2.8881)" class="st82" width="15.1" height="1.4"/>
			
				<rect x="105.2" y="206.5" transform="matrix(0.9997 -2.504899e-02 2.504899e-02 0.9997 -5.1538 2.8895)" class="st83" width="15.1" height="1.4"/>
			
				<rect x="105.3" y="207.9" transform="matrix(0.9997 -2.504899e-02 2.504899e-02 0.9997 -5.1891 2.8908)" class="st84" width="15.1" height="1.4"/>
			
				<rect x="105.3" y="209.3" transform="matrix(0.9997 -2.504899e-02 2.504899e-02 0.9997 -5.2245 2.8921)" class="st85" width="15.1" height="1.4"/>
			
				<rect x="105.3" y="210.7" transform="matrix(0.9997 -2.504899e-02 2.504899e-02 0.9997 -5.2598 2.8935)" class="st86" width="15.1" height="1.4"/>
		</g>
	</g>
</g>
<g id="text">
	<g>
		<path class="st36" d="M117.7,65.1h5.2c3.8,0,6.3,1.3,6.3,4.5c0,1.8-1,3.4-3.2,4v0.1c2.7,0.4,4.3,1.9,4.3,4.4
			c0,3.6-2.8,5.4-6.9,5.4h-5.6V65.1z M122.5,72.8c3.1,0,4.4-1,4.4-3c0-2-1.5-2.7-4.3-2.7h-2.6v5.8H122.5z M123,81.5
			c3.1,0,4.9-1,4.9-3.5c0-2.3-1.7-3.2-4.9-3.2h-3v6.7H123z"/>
		<path class="st36" d="M133.3,88.6l0.8-1.7c1,0.5,2.1,0.8,3.1,0.8c2.7,0,3.4-1.4,3.4-3.7V71.8h-6.3v-1.9h8.6v13.9
			c0,3.3-1.3,5.7-5.7,5.7C135.8,89.6,134.4,89.2,133.3,88.6z M139.6,65.2c0-1.1,0.8-1.8,1.9-1.8s1.9,0.7,1.9,1.8
			c0,1.1-0.8,1.8-1.9,1.8S139.6,66.3,139.6,65.2z"/>
		<path class="st36" d="M150.2,76.7c0-4.6,3.1-7.2,6.7-7.2c3.6,0,6.7,2.6,6.7,7.2c0,4.5-3.1,7.1-6.7,7.1
			C153.4,83.8,150.2,81.2,150.2,76.7z M161.3,76.7c0-3.1-1.7-5.2-4.3-5.2c-2.6,0-4.3,2.1-4.3,5.2c0,3.1,1.7,5.2,4.3,5.2
			C159.5,81.9,161.3,79.8,161.3,76.7z M152.7,65.5c0-0.9,0.6-1.6,1.5-1.6c0.9,0,1.5,0.7,1.5,1.6c0,0.9-0.6,1.6-1.5,1.6
			C153.3,67,152.7,66.4,152.7,65.5z M158.1,65.5c0-0.9,0.6-1.6,1.5-1.6c0.9,0,1.5,0.7,1.5,1.6c0,0.9-0.6,1.6-1.5,1.6
			C158.8,67,158.1,66.4,158.1,65.5z"/>
		<path class="st36" d="M169.4,69.9h1.9l0.2,3.2h0.1c1.4-2.2,3.6-3.6,6.1-3.6c1,0,1.8,0.1,2.7,0.6l-0.5,2c-1-0.3-1.5-0.4-2.5-0.4
			c-2,0-4,1-5.6,3.9v7.9h-2.3V69.9z"/>
		<path class="st36" d="M184,76.7c0-4.4,3.3-7.1,6.9-7.1c3.9,0,6.2,2.6,6.2,6.4c0,0.5-0.1,1-0.1,1.4h-11.5v-1.8h10.1l-0.6,0.6
			c0-3.2-1.6-4.8-4.1-4.8c-2.5,0-4.7,1.9-4.7,5.3c0,3.5,2.3,5.3,5.3,5.3c1.6,0,2.9-0.5,4.1-1.3l0.8,1.5c-1.3,0.9-3.1,1.6-5.3,1.6
			C187.3,83.8,184,81.2,184,76.7z"/>
		<path class="st36" d="M200.6,69.9h1.9l0.2,1.8h0.1c0.7-1.3,1.5-2.1,3.1-2.1c1.3,0,2.2,0.8,2.6,2.4c0.8-1.5,1.6-2.4,3.2-2.4
			c1.9,0,3,1.5,3,4.2v9.7h-2.3v-9.6c0-1.6-0.4-2.4-1.5-2.4c-0.9,0-1.5,0.7-2.2,2.1v9.9h-2.1v-9.6c0-1.6-0.4-2.4-1.4-2.4
			c-0.9,0-1.6,0.7-2.2,2.1v9.9h-2.3V69.9z"/>
		<path class="st36" d="M218,80c0-3.1,2.9-4.5,9.9-5.1c-0.1-1.8-1-3.4-3.6-3.4c-1.8,0-3.5,0.8-4.8,1.6l-0.9-1.6c1.4-0.9,3.7-2,6.1-2
			c3.7,0,5.5,2.2,5.5,5.6v8.3h-1.9l-0.2-1.8H228c-1.5,1.2-3.4,2.2-5.3,2.2C220.1,83.8,218,82.4,218,80z M227.9,79.9v-3.5
			c-5.8,0.4-7.6,1.6-7.6,3.4c0,1.5,1.4,2.1,3,2.1C224.8,81.9,226.3,81.2,227.9,79.9z"/>
		<path class="st36" d="M235.1,69.9h1.9l0.2,2.3h0.1c1.4-1.5,3-2.6,5.1-2.6c3.2,0,4.7,1.9,4.7,5.5v8.5h-2.3v-8.1
			c0-2.6-0.9-3.8-3.1-3.8c-1.6,0-2.7,0.8-4.3,2.4v9.5h-2.3V69.9z"/>
		<path class="st36" d="M142.2,95.1h2.9l2.6,7.8l0.9,3h0.1l0.9-3l2.6-7.8h2.9v18.4h-2.2v-9.2c0-1.8,0.3-4.9,0.4-6.5H153l-1,3.6
			l-2.6,7.2h-1.7l-2.6-7.2l-1.1-3.6H144c0.2,1.6,0.4,4.7,0.4,6.5v9.2h-2.2V95.1z"/>
		<path class="st36" d="M158.9,106.7c0-4.4,3.3-7.1,6.9-7.1c3.9,0,6.2,2.6,6.2,6.4c0,0.5-0.1,1-0.1,1.4h-11.5v-1.8h10.1l-0.6,0.6
			c0-3.2-1.6-4.8-4.1-4.8c-2.5,0-4.7,1.9-4.7,5.3c0,3.5,2.3,5.3,5.3,5.3c1.6,0,2.9-0.5,4.1-1.3l0.8,1.5c-1.3,0.9-3.1,1.6-5.3,1.6
			C162.1,113.8,158.9,111.2,158.9,106.7z"/>
		<path class="st36" d="M180.6,108.9V95.4h-4.8v-1.9h7.2v15.5c0,2,1.1,2.8,2.7,2.8c0.8,0,1.6-0.2,2.5-0.6l0.6,1.7
			c-1.3,0.5-2.2,0.8-3.6,0.8C182.2,113.8,180.6,112.1,180.6,108.9z"/>
		<path class="st36" d="M199.4,101.8h-6.3v-1.9h8.6v13.6h-2.3V101.8z M198.4,95.2c0-1.1,0.8-1.8,1.9-1.8s1.9,0.7,1.9,1.8
			c0,1.1-0.8,1.8-1.9,1.8S198.4,96.3,198.4,95.2z"/>
		<path class="st36" d="M209.9,99.9h1.9l0.2,2.3h0.1c1.4-1.5,3-2.6,5.1-2.6c3.2,0,4.7,1.9,4.7,5.5v8.5h-2.3v-8.1
			c0-2.6-0.9-3.8-3.1-3.8c-1.6,0-2.7,0.8-4.3,2.4v9.5h-2.3V99.9z"/>
		<path class="st36" d="M164,127.1h2.7l6.2,18.4h-2.5l-3.2-10.2c-0.6-2-1.3-4.1-1.8-6.2h-0.1c-0.6,2.1-1.2,4.1-1.8,6.2l-3.2,10.2
			h-2.4L164,127.1z M161.1,138h8.4v1.9h-8.4V138z M162.6,123.4c0-1.5,1.1-2.5,2.7-2.5c1.5,0,2.7,1,2.7,2.5c0,1.5-1.2,2.5-2.7,2.5
			C163.8,125.9,162.6,124.9,162.6,123.4z M166.8,123.4c0-1-0.7-1.5-1.4-1.5c-0.8,0-1.5,0.6-1.5,1.5c0,1,0.6,1.5,1.5,1.5
			C166.1,124.9,166.8,124.3,166.8,123.4z"/>
		<path class="st36" d="M176.3,125.6h2.3v5.4l-0.1,3.2h0.1c1.4-1.5,3-2.7,5.1-2.7c3.2,0,4.7,1.9,4.7,5.5v8.5h-2.3v-8.1
			c0-2.6-0.9-3.8-3.1-3.8c-1.6,0-2.7,0.8-4.3,2.4v9.5h-2.3V125.6z"/>
		<path class="st36" d="M192.5,143.7l1.1-1.5c1.6,1.1,3.4,1.8,5.9,1.8c2.3,0,3.4-0.9,3.4-2.1c0-1-0.5-1.8-4.2-2.5
			c-3.6-0.7-5.3-1.9-5.3-4c0-2.2,1.9-3.9,5.7-3.9c2.1,0,4.1,0.8,5.5,1.7l-1.1,1.5c-1.3-0.9-2.8-1.4-4.6-1.4c-2.3,0-3.1,0.9-3.1,2
			c0,1.2,1.2,1.7,4,2.3c4.5,1,5.6,2.1,5.6,4.2c0,2.2-2.2,4.1-6.1,4.1C196.6,145.8,194.2,144.8,192.5,143.7z"/>
	</g>
</g>
<g id="Sladd">
</g>
<g id="mus">
	<g>
		<path class="st29" d="M293,212.1c1.6-2,9.8-10.4,25-4.7c15.1,5.7,26,13,29.5,19.6c4.3,8-4.6,21.5-18.9,18.6
			c-13.6-2.7-33.2-14.7-36.6-21.9C289.3,218.3,291.4,214.1,293,212.1z"/>
		<path class="st98" d="M293,212.1c1.6-2,9.8-10.4,25-4.7c15.1,5.7,24.7,12.6,28.2,19.2c3.1,6.4-3.1,13.6-17.4,10.8
			c-13.6-2.7-27-9.4-33.4-15.6C291.1,217.6,291.4,214.1,293,212.1z"/>
		<ellipse transform="matrix(0.927 -0.3751 0.3751 0.927 -56.9593 129.1526)" class="st18" cx="303.2" cy="210.9" rx="1.8" ry="1"/>
		<g>
			<path class="st29" d="M330.1,219.8c0,0-0.8,0.4-1.6-0.1l0,0c-0.7-0.4-0.5-1-0.5-1c-0.7,0-1.1,0.3-1.3,0.4
				c-0.4,0.3-0.4,0.7-0.6,0.9c-0.2,0.2-0.7,0.3-1,0.5c-0.4,0.4-0.5,0.9-0.3,1.3c0.4,1,2,1.5,3.2,1.6c0.6,0,1.2,0,1.5-0.3
				c0.3-0.3,0.1-0.6,0.5-0.9c0.3-0.3,0.6-0.3,0.9-0.6c0.3-0.3,0.1-0.7-0.1-1.1C330.4,220.2,330.1,219.9,330.1,219.8z"/>
			<path class="st29" d="M325.4,218.4c-0.2,0.2-0.3,0.5-0.3,0.8c0,0.2,0.2,0.5,0.5,0.7c0.3-0.2,0.4-0.5,0.3-0.8l0,0
				C325.9,218.8,325.8,218.5,325.4,218.4z"/>
		</g>
		<path class="st18" d="M305,232c-2.1-2.8-4.5-3.8-7.5-3c-0.3,0.1-0.6,0.2-0.9,0.3c0.2,0.1,0.3,0.3,0.5,0.4c0.2-0.1,0.4-0.1,0.6-0.2
			c2.7-0.7,5,0.2,6.9,2.8c1,1.3,1.8,2.9,2.5,4.4c0.3,0.2,0.6,0.3,0.9,0.5C307.1,235.5,306.1,233.5,305,232z"/>
	</g>
</g>
<g id="Mugg">
	<g>
		<path class="st36" d="M35.2,160.1c-12.2,0-22.1,4-22.1,5v45.9c0,2.7,9.9,8.3,22.1,8.3c12.2,0,22.1-5.6,22.1-8.3v-45.9
			C57.2,163.3,47.4,160.1,35.2,160.1z"/>
		<g>
			<path class="st36" d="M55.2,182.7c1.7-0.5,3.3-1.3,4.9-2c-0.3,0.1,0.5-0.2,0.6-0.2c0.4-0.1,0.8-0.3,1.2-0.4c0.2,0,1-0.2,0.5-0.1
				c0.2,0,0.4,0,0.6,0c0.1,0,0.2,0,0.4,0c-0.3,0-0.3,0-0.1,0c0.6,0.1,0.8,0.2,1.2,0.6c0-0.1,0.6,0.7,0.4,0.4
				c-0.2-0.2,0.1,0.2,0.1,0.2c0.1,0.2,0.4,1,0.2,0.4c0.2,0.6,0.3,1.1,0.5,1.7c0.1,0.5,0,0,0-0.1c0,0.1,0,0.3,0,0.4
				c0,0.4,0,0.8,0,1.2c0,0.7-0.1,1.4-0.1,2.1c-0.1,0.5,0.1-0.6,0,0.1c0,0.2-0.1,0.3-0.1,0.5c-0.1,0.4-0.2,0.8-0.2,1.2
				c-0.2,0.7-0.4,1.4-0.6,2.1c-0.1,0.3-0.2,0.7-0.4,1c-0.1,0.2-0.1,0.4-0.2,0.6c0.2-0.4,0,0.1-0.1,0.2c-0.3,0.6-0.6,1.2-0.9,1.8
				c-0.1,0.2-0.3,0.5-0.4,0.7c-0.1,0.1-0.2,0.2-0.2,0.3c-0.3,0.5,0.3-0.3-0.1,0.1c-0.4,0.4-0.7,0.8-1.1,1.1c0.6-0.5-0.2,0.1-0.4,0.2
				c-0.3,0.2-0.5,0.2-1,0.3c0.1,0,0.4,0-0.1,0c-0.3,0-0.5,0-0.8,0c-0.2,0-0.3,0-0.5,0c0.5,0.1-0.2-0.1-0.3-0.1
				c-0.9-0.2-1.8-0.5-2.7-0.7c-2.1-0.5-4.1-0.6-6.2,0.4c-1.3,0.6-1.6,2.4-0.9,3.6c0.8,1.3,2.3,1.5,3.6,0.9c-0.5,0.2,1-0.1,0.3-0.1
				c0.2,0,1.3,0,0.7,0c0.9,0.1,1.8,0.4,2.6,0.6c2,0.6,4.2,0.9,6.2,0.3c3.3-1,5.4-3.8,6.8-6.8c1.5-3.3,2.5-6.9,2.5-10.5
				c0-3.5-1.2-7.4-4.6-9.1c-2.1-1.1-4.6-0.9-6.8-0.1c-1.1,0.4-2.2,0.9-3.3,1.4c-0.2,0.1-0.3,0.1-0.5,0.2c-0.2,0.1-0.3,0.1-0.5,0.2
				c0.2-0.1,0.2-0.1-0.1,0c-0.4,0.2-0.9,0.3-1.4,0.5C50.6,178.6,51.9,183.6,55.2,182.7L55.2,182.7z"/>
		</g>
		<path class="st19" d="M56.5,165.7c0,2.5-9.6,6.1-21.3,6.1s-21.3-4.5-21.3-6.1c0-0.9,9.6-4.5,21.3-4.5S56.5,164.1,56.5,165.7z"/>
		<g>
			<defs>
				<path id="SVGID_00000122709567195149040260000013155480247176037513_" d="M56.5,165.7c0,2.6-9.6,6.1-21.3,6.1
					s-21.3-4.5-21.3-6.1c0-0.9,9.1-2,20.9-2S56.5,164.1,56.5,165.7z"/>
			</defs>
			<clipPath id="SVGID_00000018219730455117432220000004929479255114538660_">
				<use xlink:href="#SVGID_00000122709567195149040260000013155480247176037513_"  style="overflow:visible;"/>
			</clipPath>
			<path style="clip-path:url(#SVGID_00000018219730455117432220000004929479255114538660_);fill:#006F9E;" d="M56.5,170.7
				c0,1.6-9.6,3.1-21.3,3.1s-21.3-2.2-21.3-3.1c0-0.9,9.6-4.6,21.3-4.6S56.5,169.1,56.5,170.7z"/>
		</g>
		<path class="st106" d="M14,179.1c0-0.1-0.2-0.1-0.2,0c-0.1,6.7-0.3,31.1,0.6,32.4c2.8,3.8,14.3,6.4,15.6,6.4s-9-4.3-11.4-10.9
			C16.5,201.5,14.6,184.5,14,179.1z"/>
		<g>
			<path class="st18" d="M57.1,176.7c0.6,1.6,0.6,3.4,0,5C57,180.3,56.9,178.1,57.1,176.7L57.1,176.7z"/>
		</g>
		<g>
			<path class="st18" d="M57.1,196.9c0.6,1.6,0.6,3.4,0,5C57,200.5,56.9,198.4,57.1,196.9L57.1,196.9z"/>
		</g>
		<path class="st107" d="M26.2,163.9c-0.4-0.1-0.7-0.3-1-0.6c-0.3-0.4-0.4-1-0.2-1.4c0.4-0.7,1.9-1.2,2.6-1.5
			c1.1-0.5,2.2-0.8,3.4-1.1c1.2-0.2,3.1-0.7,3.5-2.1c0.4-1.4-1.3-2.5-2.8-2.8c-1.4-0.3-3.2-0.7-3.7-2.1c-0.6-1.7,1.2-3.2,2.8-3.9
			c1.6-0.8,3.5-1.8,3.5-3.6c0-1-0.7-1.8-1-2.7c-0.5-1.3-0.4-2.9,0.3-4.1c0.3-0.5,0.6-1,0.8-1.5c0.3-0.9,0-1.8-0.4-2.6
			c-0.8-1.6-2-2.9-3.4-3.9c1.8,1.5,3.8,2.7,5.4,4.5c1.5,1.8,2.4,4.4,1.2,6.4c-0.8,1.3-2.5,2.5-2.1,4c0.6,1.7,3.7,2,3.5,3.8
			c0,0.3-0.2,0.6-0.4,0.9c-0.6,1-1.7,1.7-2.8,2c-0.3,0.1-0.5,0.1-0.7,0.3c-0.7,0.6,0.1,1.7,1,2.2c1.2,0.7,2.4,1.2,3.7,1.7
			c0.5,0.2,1,0.4,1.2,0.9c0.1,0.5-0.2,0.9-0.6,1.3c-0.9,0.9-2.1,1.6-3.3,2c-0.8,0.3-1.8,0.6-1.8,1.4c-0.1,0.8,0.8,1.4,1.6,1.7
			c0.9,0.4,2.4,0.5,3,1.3c0.5,0.7,0.3,1.9-0.2,2.5c-0.6,0.9-1.7,1.3-2.8,1.5c-1,0.2-2.1,0.2-3.2,0.6c0.7-0.1,1.4-0.6,1.7-1.2
			c0.2-0.3,0.3-0.7,0.3-1.1c-0.1-0.8-0.7-1.4-1.4-1.8c-2.3-1.1-5-0.3-7.5-0.9C26.4,164,26.3,163.9,26.2,163.9z"/>
	</g>
</g>
<g id="GT">
	<g>
		<path class="st61" d="M46.2,200.3c10.3,0,18.5,3.5,18.4,4.5l-2.4,39.2c-0.1,2-7.4,6-16,6c-8.7,0-15.9-4-16-6l-2.4-39.2
			C27.6,203,35.8,200.3,46.2,200.3z"/>
		<path class="st62" d="M46.2,215.2c9.4,0,16.8,2.9,16.8,3.8l-1.3,21.9c-0.1,1.9-7.1,5.9-15.5,5.9c-8.4,0-15.4-3.9-15.5-5.9
			L29.4,219C29.3,217.4,36.8,215.2,46.2,215.2z"/>
		<g>
			<path class="st63" d="M28.6,205.6c0.1,0.8,0.9,1.3,1.5,1.6c2,1.1,4.4,1.6,6.6,2.1c6.1,1.4,12.5,1.1,18.6-0.2
				c2.6-0.6,5.4-1.3,7.7-2.7c0.3-0.2,0.6-0.5,0.7-0.8l0.1,0c0,0.4-0.4,0.7-0.7,1c-4.9,3.3-11.2,4-17,4c-5.4-0.3-11.3-0.2-16.1-3.1
				C29.4,207,28.5,206.3,28.6,205.6L28.6,205.6z"/>
		</g>
		<path class="st64" d="M29.4,218.8c0.1,2.2,7.7,4.8,16.8,4.8s16.7-3.4,16.8-4.8c0-0.8-7.4-3.6-16.8-3.6S29.3,217.3,29.4,218.8z"/>
		<g>
			<g>
				<g>
					<g>
						<g>
							<path class="st18" d="M70.7,214.8c-2.3,1.2-2.3,1.2-4.7,1c-0.3,0-1.5-10.8-1.9-10.8c-0.2,0-2,11.2-2.3,11.2
								c-3.4-0.9-6.4-3.2-8.1-6.6c-1.6-3.2-1.7-6.8-0.6-10c1.1-3,3.3-5.6,6.3-7.1c3.2-1.6,6-1.1,9.7-0.7c3.2,0.3,5.8,3.3,7.4,6.4
								c1.6,3.2,2.1,6.9,0.6,9.9C75,212.3,73.8,213.3,70.7,214.8z"/>
						</g>
					</g>
				</g>
			</g>
			<g>
				<g>
					<g>
						<g>
							<path class="st65" d="M62,215.7c-3.6-0.8-6.3-3.5-7.9-6.8c-1.5-3-1.7-6.4-0.6-9.5c1.1-2.9,3.2-5.3,6-6.7c1.5-0.8,2.9-1,4.5-1
								c1.2,0,2.5,0.1,3.9,0.3c0.3,0,0.6,0.1,1,0.1c3.7,0.4,6,4.4,6.8,6.1c1.7,3.4,1.9,6.8,0.6,9.3c-2.2,4.2-3,5.2-5.8,6.7
								c-0.1,0-0.1,0.1-0.2,0.1c-2.1,0.9-2.5,1.1-4.6,1l0.1,1c2,0.1,2.6-0.1,4.2-0.7c0.3-0.1,0.5-0.2,0.7-0.4
								c1.6-0.8,2.8-1.5,3.8-2.5c0.6-0.6,1.2-1.3,1.8-2.3c0.4-0.6,0.8-1.4,1.3-2.3c0.4-0.8,0.6-1.7,0.6-2.7c0-0.8,0-1.6,0-2.4
								c-0.1-1.7-0.8-3.6-1.6-5.4c-0.9-1.8-1.5-2.3-2.7-3.5c-0.1-0.1-0.3-0.3-0.4-0.4c-0.6-0.6-1.3-0.9-1.9-1.3
								c-0.7-0.4-1.5-0.7-2.3-0.8c-0.3,0-1.4-0.3-1.7-0.3c-1.6-0.2-2.4-0.4-3.8-0.3c-0.1,0-0.2,0-0.3,0c-1.5,0.1-2.8,0.5-4.1,1.2
								c-3.1,1.5-5.4,3.6-6.6,6.9c-0.6,1.7-0.8,3.2-0.7,5c0.1,1.8,0.3,3.3,1.1,5c0.9,1.9,2,3.8,3.6,5.1c1.6,1.2,3.1,2,5.1,2.4
								L62,215.7z"/>
						</g>
					</g>
				</g>
			</g>
			<g>
				<g>
					<g>
						<g>
							<path class="st36" d="M52.9,206.3c-0.2-0.7-0.3-1.3-0.4-2c-0.2-1.8,0-3.4,0.5-4.9c1.1-2.9,3.4-5.6,6.3-7
								c2.8-1.4,5.5-1.1,8.6-0.7c0.3,0,0.6,0.1,0.9,0.1c1.5,0.2,2.9,0.9,4.2,2.3c1.1,1.1,2.1,2.5,2.9,4.2c0.8,1.6,1.3,3.3,1.4,4.8
								c0.1,1.8-0.1,3.3-0.8,4.7c-1.1,2.1-1.9,3.3-2.8,4.2c-0.9,0.9-2,1.6-3.5,2.3l0,0c-1.9,0.8-2.6,0.9-4.5,0.9
								c-0.3,0-1.3-10.4-1.6-10.4c-0.2,0-1.9,10.9-2.2,10.8c-1.5-0.4-3.2-1.2-4.4-2.1c-1.5-1.1-2.7-2.6-3.6-4.3
								C53.5,208.4,53.2,207.4,52.9,206.3z M76.5,201.4c-0.2-0.9-0.6-1.8-1-2.7c-0.9-1.7-3.2-5.8-6.7-6.2c-0.3,0-0.6-0.1-0.9-0.1
								c-3.1-0.3-5.6-0.6-8.2,0.7c-2.7,1.4-5,3.8-6,6.6c-0.7,1.9-0.7,4.2-0.1,6.5c0.2,1,0.6,1.9,1.1,2.8c1.6,3.2,3.9,5.3,7.5,6.1
								c0.1,0,1.8-10.3,2.1-10.2c0.3,0.1,1.8,9.8,1.9,9.8c2,0.2,1.7,0.3,4-0.8l0,0c2.8-1.4,3.9-2.2,6-6.3
								C76.9,205.9,77.1,203.7,76.5,201.4z"/>
						</g>
					</g>
				</g>
			</g>
			<g>
				<g>
					<g>
						<g>
							<path class="st36" d="M70,214l-4.6-9c-0.1-0.2-0.1-0.4,0-0.6l0.1-0.2c0.1-0.2,0.4-0.3,0.6-0.2l10.6,2.5c0.1,0,0.2,0,0.2,0
								l0.1-0.4c0,0-0.1-0.1-0.2-0.1l-10.7-2.2c-0.2,0-0.4-0.3-0.5-0.5l0-0.2c0-0.2,0.1-0.5,0.3-0.6l9.1-5.2
								c0.1-0.1,0.2-0.1,0.2-0.1l-0.2-0.3c0,0-0.1,0-0.2,0.1l-8.9,5.4c-0.2,0.1-0.5,0.1-0.7-0.1l-0.1-0.1c-0.2-0.2-0.2-0.4-0.1-0.6
								l3.4-9.3c0-0.1,0.1-0.2,0-0.2l-0.4-0.1c0,0-0.1,0.1-0.1,0.2l-3.1,9.3c-0.1,0.2-0.3,0.4-0.6,0.4l0,0c-0.2,0-0.5-0.2-0.5-0.4
								l-2.6-9.3c0-0.1-0.1-0.2-0.1-0.2l-0.4,0.1c0,0,0,0.1,0,0.2l2.9,9.2c0.1,0.2,0,0.5-0.2,0.6l-0.1,0c-0.2,0.2-0.5,0.1-0.7,0
								l-7.1-6c-0.1-0.1-0.2-0.1-0.2-0.1l-0.2,0.3c0,0,0.1,0.1,0.1,0.2l7.4,5.8c0.2,0.1,0.3,0.4,0.2,0.6l0,0.1
								c-0.1,0.2-0.3,0.4-0.5,0.4l-9.1,0.9c-0.1,0-0.2,0-0.2,0.1l0,0.4c0,0,0.1,0,0.2,0l9.1-1.2c0.2,0,0.5,0.1,0.6,0.3l0,0
								c0.1,0.2,0.1,0.5-0.1,0.7l-7.2,6.5c-0.1,0.1-0.1,0.2-0.1,0.2l0.3,0.3c0,0,0.1,0,0.2-0.1c0,0,7-6.7,7.1-6.8
								c0.1-0.1,0.3-0.2,0.5-0.2c0.2,0,0.4,0,0.6,0.1c0,0,0,0,0.1,0c0,0,0,0,0,0c0,0,0.1,0,0.1,0c0.4-0.1,0.9-0.2,1.1,0.3l4.3,9
								c0,0.1,0.1,0.2,0.1,0.2l0.4-0.2C70.1,214.2,70.1,214.1,70,214z"/>
						</g>
					</g>
				</g>
			</g>
		</g>
		<g>
			<g>
				<g>
					<g>
						<g>
							<g>
								<path class="st18" d="M49.4,229.6H32.9c0.1,1,0.3,2.1,0.5,3.1c1.1,4.3,3.4,8.6,7.3,10c3.2,1.1,5.8,2.1,8.7,2.2V229.6z"/>
							</g>
						</g>
					</g>
				</g>
			</g>
			<g>
				<g>
					<g>
						<g>
							<g>
								<path class="st65" d="M49.4,244.6c-0.7,0-1.5-0.2-2.2-0.3c-1.5-0.3-3-0.9-4.8-1.5c-0.4-0.1-0.8-0.3-1.2-0.4
									c-4.4-1.5-6.2-7.1-6.8-9.4c-0.3-1.2-0.5-2.3-0.5-3.4h-1.1c0.1,1.3,0.3,2.6,0.6,3.9c0.6,2.4,1.2,3.3,2.4,5
									c0.1,0.1,0.3,0.4,0.4,0.6c0.6,0.8,1.3,1.5,1.9,2.1c0.8,0.7,1.6,1.3,2.6,1.6c0.4,0.1,1.6,0.8,2,0.9c2,0.7,2.8,1.1,4.6,1.4
									c0.1,0,0.3,0,0.4,0.1c0.6,0.1,1.1,0.1,1.6,0.1V244.6z"/>
							</g>
						</g>
					</g>
				</g>
			</g>
			<path class="st36" d="M33.8,229.6c0.1,1,0.2,2,0.5,2.9c0.6,2.3,1.4,4.4,2.4,6c1.3,2,2.8,3.4,4.6,4c0.4,0.1,0.7,0.3,1.1,0.4
				c2.5,0.9,4.7,1.6,7,1.8l0,0v-13.5v-1.6h-1.2H33.8z M42.6,242.2c-0.1,0-0.1,0-0.2-0.1l6.3-10.6c0.1-0.1,0.2-0.2,0.3-0.2v12.6
				C47,243.7,44.9,243,42.6,242.2z M35.6,234.3l12.1-4.1c0.3-0.1,0.7,0,0.8,0.3l0.1,0.1c0.2,0.2,0.2,0.6,0,0.8L41.9,242c0,0,0,0,0,0
				c-0.1,0-0.2-0.1-0.3-0.1C38.3,240.8,36.5,237.1,35.6,234.3z M34.6,230h13.2c0,0,0,0,0,0l-12.3,3.8c-0.2-0.5-0.3-1-0.4-1.4
				C34.8,231.6,34.7,230.8,34.6,230z"/>
		</g>
		<g class="st66">
			<path class="st36" d="M46.2,231.8c1.8-1.3,3-1.3,4.8-2.6c0.1-0.1,0.2-0.1,0.3-0.2c0.1,0,0.3,0,0.4,0.1c2.2,0.8,3,2.2,5.2,3.6
				c0.3,0.2,1.4,0.6,1.4,1c0,0,0,0.5,0,0.8c0,1.7-0.1,3.3-0.2,5c0,0.2,0,0.4-0.1,0.5c-0.1,0.1-0.2,0.2-0.4,0.3
				c-1.6,0.9-3.2,1.7-4.9,2.5c-1.4-2.1-3.4-3.8-5.6-5c-0.1-0.1-0.3-0.2-0.3-0.3c-0.1-0.1-0.1-0.3-0.1-0.4
				C46.9,235.5,46.6,233.5,46.2,231.8z"/>
			<g>
				<polyline class="st36" points="58,234.1 53.4,236 46.6,232.1 				"/>
				<path class="st18" d="M58,234.1c-1.5,0.7-3,1.4-4.6,2c-2.3-1.3-4.6-2.6-6.8-4c2.4,1.2,4.6,2.4,6.9,3.7
					C54.4,235.3,56.6,234.6,58,234.1L58,234.1z"/>
			</g>
			<g>
				<path class="st36" d="M52.8,242.5c0-0.1,0.6-6.5,0.6-6.5"/>
				<path class="st18" d="M52.8,242.5c0-2.2,0.2-4.4,0.6-6.5C53.4,238.2,53.2,240.4,52.8,242.5L52.8,242.5z"/>
			</g>
		</g>
		<path class="st67" d="M63.8,205.6c0,0,0,0.1,0,0.2c-1.3,1.8-8.5,4.6-17.6,4.6c-9.3,0-16.8-2.1-17.6-4.7c0,0,2.1,35.2,2.1,35.2
			c0.1,1.9,7.1,5.9,15.5,5.9c8.4,0,15.4-3.9,15.5-5.9c-0.1,2.1-0.4,4.5,0,4.1c0.4-0.4,0.5-0.8,0.6-1.1l2.4-39.2
			C64.6,204.5,64,205,63.8,205.6z"/>
		<g>
			<path class="st68" d="M28.6,205.6c0.1,0.8,0.9,1.3,1.5,1.6c2,1.1,4.4,1.6,6.6,2.1c6.1,1.4,12.5,1.1,18.6-0.2
				c2.6-0.6,5.4-1.3,7.7-2.7c0.3-0.2,0.6-0.5,0.7-0.8l0.1,0c0,0.4-0.4,0.7-0.7,1c-4.9,3.3-11.2,4-17,4c-5.4-0.3-11.3-0.2-16.1-3.1
				C29.4,207,28.5,206.3,28.6,205.6L28.6,205.6z"/>
		</g>
	</g>
</g>
</svg>
